<svg xmlns="http://www.w3.org/2000/svg">
  <symbol id="icon-ticket" viewBox="0 0 16 16">
    <path d="M4 4.85v.9h1v-.9H4Zm7 0v.9h1v-.9h-1Zm-7 1.8v.9h1v-.9H4Zm7 0v.9h1v-.9h-1Zm-7 1.8v.9h1v-.9H4Zm7 0v.9h1v-.9h-1Zm-7 1.8v.9h1v-.9H4Zm7 0v.9h1v-.9h-1Z"/>
    <path d="M1.5 3A1.5 1.5 0 0 0 0 4.5V6a.5.5 0 0 0 .5.5 1.5 1.5 0 1 1 0 3 .5.5 0 0 0-.5.5v1.5A1.5 1.5 0 0 0 1.5 13h13a1.5 1.5 0 0 0 1.5-1.5V10a.5.5 0 0 0-.5-.5 1.5 1.5 0 1 1 0-3 .5.5 0 0 0 .5-.5V4.5A1.5 1.5 0 0 0 14.5 3h-13ZM1 4.5a.5.5 0 0 1 .5-.5h13a.5.5 0 0 1 .5.5v1.05a2.5 2.5 0 0 0 0 4.9v1.05a.5.5 0 0 1-.5.5h-13a.5.5 0 0 1-.5-.5v-1.05a2.5 2.5 0 0 0 0-4.9V4.5Z"/>
  </symbol>

  <symbol id="icon-person" viewBox="0 0 16 16">
    <path d="M8 8a3 3 0 1 0 0-6 3 3 0 0 0 0 6m2-3a2 2 0 1 1-4 0 2 2 0 0 1 4 0m4 8c0 1-1 1-1 1H3s-1 0-1-1 1-4 6-4 6 3 6 4m-1-.004c-.001-.246-.154-.986-.832-1.664C11.516 10.68 10.289 10 8 10s-3.516.68-4.168 1.332c-.678.678-.83 1.418-.832 1.664z"/>
  </symbol>

  <symbol id="icon-calendar" viewBox="0 0 16 16">
    <path d="M11 6.5a.5.5 0 0 1 .5-.5h1a.5.5 0 0 1 .5.5v1a.5.5 0 0 1-.5.5h-1a.5.5 0 0 1-.5-.5z"/>
    <path d="M3.5 0a.5.5 0 0 1 .5.5V1h8V.5a.5.5 0 0 1 1 0V1h1a2 2 0 0 1 2 2v11a2 2 0 0 1-2 2H2a2 2 0 0 1-2-2V3a2 2 0 0 1 2-2h1V.5a.5.5 0 0 1 .5-.5M1 4v10a1 1 0 0 0 1 1h12a1 1 0 0 0 1-1V4z"/>
  </symbol>

  <symbol id="icon-geo" viewBox="0 0 16 16">
    <path d="M8 16s6-5.686 6-10A6 6 0 0 0 2 6c0 4.314 6 10 6 10m0-7a3 3 0 1 1 0-6 3 3 0 0 1 0 6"/>
    <path d="M8 8a2 2 0 1 1 0-4 2 2 0 0 1 0 4m0 1a3 3 0 1 0 0-6 3 3 0 0 0 0 6"/>
  </symbol>
</svg>
